<svg xmlns="http://www.w3.org/2000/svg" xmlns:xlink="http://www.w3.org/1999/xlink" width="700" height="280" viewBox="0 0 700 280">
  <defs>
    <linearGradient id="linear-gradient" x1="0.817" y1="0.083" x2="-0.036" y2="1.547" gradientUnits="objectBoundingBox">
      <stop offset="0" stop-color="#00d5f8"/>
      <stop offset="0.507" stop-color="#2e4dfe"/>
      <stop offset="1" stop-color="#2538b1"/>
    </linearGradient>
  </defs>
  <g id="Group_52" data-name="Group 52" transform="translate(-1323 829)">
    <rect id="Rectangle_277" data-name="Rectangle 277" width="700" height="280" transform="translate(1323 -829)" fill="rgba(255,255,255,0)"/>
    <g id="Group_51" data-name="Group 51" transform="translate(116 -9)">
      <path id="Subtraction_1" data-name="Subtraction 1" d="M70,167a190.981,190.981,0,0,1-28.207-2.1A47.274,47.274,0,0,1,2.1,125.208a190.194,190.194,0,0,1,0-56.416A47.231,47.231,0,0,1,41.792,29.1,190.988,190.988,0,0,1,70,27c.6,0,1.209,0,1.809.009-.135.637-.255,1.292-.353,1.947a131.8,131.8,0,0,0,0,39.088,32.785,32.785,0,0,0,27.5,27.5A132.345,132.345,0,0,0,118.5,97a132.338,132.338,0,0,0,19.543-1.457c.65-.1,1.3-.217,1.947-.353a190.951,190.951,0,0,1-2.094,30.018A47.229,47.229,0,0,1,98.208,164.9,191,191,0,0,1,70,167Z" transform="translate(1486 -715)" fill="url(#linear-gradient)"/>
      <path id="Path_103" data-name="Path 103" d="M33.695,47.312h0a65.28,65.28,0,0,1-19.356,0h0A16.211,16.211,0,0,1,.721,33.695h0a65.279,65.279,0,0,1,0-19.356h0A16.211,16.211,0,0,1,14.339.721h0a65.279,65.279,0,0,1,19.356,0h0A16.211,16.211,0,0,1,47.312,14.339h0a65.28,65.28,0,0,1,0,19.356h0A16.235,16.235,0,0,1,33.695,47.312Z" transform="translate(1628.033 -691) rotate(90)" fill="#05c5f8"/>
    </g>
  </g>
</svg>
