<svg xmlns="http://www.w3.org/2000/svg" xmlns:xlink="http://www.w3.org/1999/xlink" width="700" height="400" viewBox="0 0 700 400">
  <defs>
    <linearGradient id="linear-gradient" x1="0.387" y1="0.032" x2="1.108" y2="1.31" gradientUnits="objectBoundingBox">
      <stop offset="0" stop-color="#001fff"/>
      <stop offset="1" stop-color="#001190"/>
    </linearGradient>
  </defs>
  <g id="Group_51" data-name="Group 51" transform="translate(-1216 586)">
    <rect id="Rectangle_277" data-name="Rectangle 277" width="700" height="400" transform="translate(1216 -586)" fill="#fff"/>
    <path id="Path_100" data-name="Path 100" d="M98.208,137.9h0a190.269,190.269,0,0,1-56.416,0h0A47.249,47.249,0,0,1,2.1,98.208h0a190.266,190.266,0,0,1,0-56.416h0A47.249,47.249,0,0,1,41.792,2.1h0a190.266,190.266,0,0,1,56.416,0h0A47.249,47.249,0,0,1,137.9,41.792h0a190.268,190.268,0,0,1,0,56.416h0A47.318,47.318,0,0,1,98.208,137.9Z" transform="translate(1636 -435) rotate(90)" fill="url(#linear-gradient)"/>
    <g id="Path_101" data-name="Path 101" transform="translate(1636 -435) rotate(90)" fill="#001fff">
      <path d="M 24.01667976379395 60.03334426879883 C 20.19642448425293 60.03334426879883 16.34202575683594 59.74607086181641 12.56058883666992 59.17948913574219 C 0.2328433990478516 57.32370758056641 -9.290356636047363 47.80050659179688 -11.14490222930908 35.48099899291992 C -12.28512001037598 27.8710880279541 -12.28512001037598 20.16228866577148 -11.14613819122314 12.56054306030273 C -9.290338516235352 0.232815682888031 0.2328615784645081 -9.290384292602539 12.55237102508545 -11.14491176605225 C 16.34177589416504 -11.71267700195312 20.19627380371094 -11.99998474121094 24.01631736755371 -11.99998474121094 C 24.01655006408691 -11.99998474121094 24.01644706726074 -11.99998474121094 24.01667976379395 -11.99998474121094 C 27.83695220947266 -12.00000286102295 31.69135284423828 -11.71271133422852 35.47280883789062 -11.1461296081543 C 47.80053329467773 -9.290366172790527 57.32373428344727 0.2328338623046875 59.17827987670898 12.55236148834229 C 60.3184814453125 20.16226959228516 60.3184814453125 27.8710880279541 59.17949676513672 35.47281646728516 C 57.30371475219727 47.80767059326172 47.78269958496094 57.32352447509766 35.48369979858398 59.17785263061523 C 31.69133377075195 59.74607086181641 27.83695220947266 60.03334426879883 24.01667976379395 60.03334426879883 Z" stroke="none"/>
      <path d="M 24.01669120788574 48.03333282470703 C 27.25079727172852 48.03333282470703 30.48489761352539 47.79287338256836 33.69467926025391 47.31195068359375 C 40.71945953369141 46.25282669067383 46.2420539855957 40.73026275634766 47.31196212768555 33.69467163085938 C 48.27383422851562 27.27510833740234 48.27383422851562 20.75826454162598 47.31196212768555 14.3386697769165 C 46.25286865234375 7.303076267242432 40.73027420043945 1.780514001846313 33.69467926025391 0.7213889956474304 C 30.48489761352539 0.2404671013355255 27.25078964233398 6.16455099589075e-06 24.01667976379395 6.16455099589075e-06 C 20.78256988525391 6.16455099589075e-06 17.5484619140625 0.2404671013355255 14.33867931365967 0.7213889956474304 C 7.303085803985596 1.780514001846313 1.780523538589478 7.303076267242432 0.7213985323905945 14.3386697769165 C -0.2404764890670776 20.75826454162598 -0.2404764890670776 27.27510833740234 0.7213985323905945 33.69467163085938 C 1.780523538589478 40.73026275634766 7.303085803985596 46.25282669067383 14.33867931365967 47.31195068359375 C 17.54847717285156 47.79287338256836 20.78258514404297 48.03333282470703 24.01669120788574 48.03333282470703 M 24.01667976379395 72.0333251953125 C 19.60305404663086 72.0333251953125 15.15039825439453 71.70148468017578 10.78236770629883 71.04701232910156 C -6.793757915496826 68.40113830566406 -20.36778831481934 54.82710647583008 -23.01119613647461 37.26732635498047 C -24.32944488525391 28.46935844421387 -24.32944488525391 19.56401443481445 -23.01366424560547 10.78235816955566 C -20.36778831481934 -6.79376745223999 -6.793757915496826 -20.3677978515625 10.76602363586426 -23.01120567321777 C 15.15071105957031 -23.66814231872559 19.60330390930176 -23.99998664855957 24.01667976379395 -23.99998664855957 C 28.43005561828613 -23.99998664855957 32.88264846801758 -23.66814231872559 37.25080490112305 -23.01370429992676 C 54.82720947265625 -20.36776733398438 68.4012451171875 -6.793704986572266 71.04458618164062 10.7661075592041 C 72.36280822753906 19.56401443481445 72.36280822753906 28.46935844421387 71.04698944091797 37.25101470947266 C 68.37208557128906 54.84138870239258 54.80239868164062 68.40079498291016 37.27271270751953 71.04373168945312 C 32.88302230834961 71.70148468017578 28.43033599853516 72.0333251953125 24.01667976379395 72.0333251953125 Z" stroke="none" fill="#fff"/>
    </g>
    <text id="react-toast" transform="translate(1566 -235)" fill="#212121" font-size="26" font-family="Nunito-Bold, Nunito" font-weight="700"><tspan x="-65.767" y="0">react-toast</tspan></text>
  </g>
</svg>
